<svg xmlns="http://www.w3.org/2000/svg" viewBox="0 0 1500 400" fill="#111111"><title>Goloco</title><g transform="translate(3.57 17)"><g transform="translate(-4.075853,370.994277) scale(0.100000,-0.100000)"><path d="M1590 3694 c-681 -92 -1267 -605 -1470 -1285 -25 -84 -45 -177 -41 -194 1 -3 165 -6 366 -5 l365 0 0 -195 0 -195 199 0 199 0 6 68 c26 296 91 475 235 649 91 111 266 217 428 260 88 24 116 27 278 27 272 1 501 -44 860 -168 105 -36 204 -66 220 -66 47 0 92 33 106 78 11 37 4 65 -117 488 -127 443 -129 449 -169 490 -24 26 -55 46 -80 53 -64 17 -1250 13 -1385 -5z"/><path d="M2097 2166 c-14 -13 -28 -39 -32 -57 -3 -19 -5 -144 -3 -277 l3 -244 28 -24 c28 -24 29 -24 267 -24 204 0 241 -2 254 -16 14 -13 16 -50 16 -248 0 -170 -3 -237 -12 -249 -23 -30 -259 -80 -438 -93 -109 -7 -250 7 -358 36 -297 81 -504 302 -581 620 l-26 110 -257 0 -258 0 0 190 0 190 -324 0 -324 0 -7 -87 c-10 -118 0 -347 20 -463 110 -621 523 -1123 1116 -1354 229 -90 432 -126 702 -126 420 0 813 81 1278 265 275 109 684 321 755 392 54 54 56 73 52 768 -3 685 -2 671 -59 701 -24 12 -166 14 -907 14 l-879 0 -26 -24z"/></g></g><g transform="translate(464 72.88) scale(2.23)"><g transform="translate(-7.128521,119.000000) scale(0.100000,-0.100000)"><path d="M2210 1179 c-14 -6 -77 -26 -140 -44 -93 -27 -116 -37 -118 -53 -2 -15 4 -21 33 -26 20 -4 45 -16 56 -27 18 -18 19 -36 19 -438 0 -468 2 -455 -70 -470 -26 -5 -36 -13 -38 -29 l-3 -22 216 0 216 0 -3 22 c-2 14 -13 24 -32 29 -15 4 -37 16 -47 25 -18 16 -19 40 -19 531 l0 513 -22 -1 c-13 0 -34 -5 -48 -10z"/><path d="M470 1105 c-159 -45 -273 -134 -339 -266 -52 -103 -65 -170 -58 -294 9 -157 55 -264 157 -359 106 -99 252 -143 440 -133 111 6 260 45 328 87 l32 20 0 139 c0 157 7 177 70 190 28 5 36 12 38 34 2 17 -1 27 -10 27 -7 0 -101 0 -208 1 -295 1 -270 4 -270 -31 0 -28 3 -30 38 -30 20 0 53 -8 72 -18 l35 -17 6 -125 c4 -68 3 -134 -1 -146 -11 -29 -79 -54 -145 -54 -200 0 -325 180 -325 469 0 207 63 351 182 416 44 24 65 29 123 30 129 0 219 -64 287 -206 25 -52 38 -69 53 -69 47 1 49 8 36 152 -7 73 -15 136 -19 139 -4 4 -50 17 -102 30 -123 29 -338 36 -420 14z"/><path d="M1413 771 c-163 -59 -251 -199 -241 -381 11 -194 144 -322 349 -337 249 -17 429 138 429 371 0 167 -93 297 -249 346 -83 26 -215 27 -288 1z m234 -84 c41 -45 63 -118 70 -232 13 -210 -61 -356 -172 -341 -27 3 -48 14 -66 34 -84 93 -104 361 -38 499 43 90 142 109 206 40z"/><path d="M2633 766 c-171 -65 -258 -217 -232 -406 18 -130 99 -235 217 -281 47 -19 77 -23 167 -24 103 0 114 2 176 31 89 43 142 93 181 172 30 60 33 75 33 157 0 120 -21 179 -91 254 -79 86 -148 114 -284 118 -91 3 -113 0 -167 -21z m207 -51 c63 -33 100 -143 100 -300 0 -136 -27 -232 -79 -279 -11 -10 -40 -21 -64 -23 -38 -5 -48 -1 -79 26 -20 17 -46 55 -59 83 -21 47 -23 69 -24 193 0 167 13 221 65 276 30 32 44 39 74 39 20 0 50 -7 66 -15z"/><path d="M3493 775 c-99 -30 -195 -113 -236 -203 -19 -40 -22 -65 -22 -162 0 -106 2 -120 28 -172 111 -226 461 -253 608 -47 19 28 20 32 6 46 -14 14 -18 13 -47 -7 -35 -25 -110 -50 -149 -50 -186 0 -290 255 -188 460 24 48 76 90 113 90 13 0 35 -10 50 -23 22 -20 28 -34 32 -83 5 -68 28 -100 77 -110 45 -8 93 19 111 62 33 78 -31 166 -145 198 -68 19 -179 20 -238 1z"/><path d="M4165 769 c-164 -53 -253 -191 -243 -378 6 -107 32 -166 105 -238 110 -108 312 -135 467 -62 197 92 267 352 147 541 -85 133 -299 195 -476 137z m203 -59 c118 -72 134 -458 23 -564 -57 -55 -137 -41 -186 32 -66 100 -72 363 -10 482 34 65 111 87 173 50z"/></g></g></svg>
